<svg width="243" height="53" viewBox="0 0 243 53" fill="none" xmlns="http://www.w3.org/2000/svg">
<path d="M139.552 27.0215C141.323 26.1985 143.259 25.3482 145.112 24.4155C146.938 23.5103 148.708 22.4679 150.589 21.6176C149.538 22.4679 148.459 23.3183 147.408 24.2235C146.91 24.6624 146.329 25.0739 146.44 25.8694C146.468 26.0888 146.495 26.3357 146.578 26.5003C149.206 31.1087 151.834 35.6896 154.462 40.298C154.462 40.3255 154.517 40.3255 154.628 40.3529C155.07 39.3105 155.872 38.4327 155.845 37.1709C155.762 33.9615 155.679 30.7521 155.568 27.5427C155.485 25.403 155.347 23.2634 155.236 21.1238C155.236 21.0141 155.264 20.9044 155.208 20.8221C155.208 18.5453 155.706 17.9967 156.923 16.9543C158.887 15.2262 160.839 13.7024 162.72 11.8645C163.273 11.3159 164.029 10.1232 164.388 9.38253C164.637 8.83391 164.365 8.2479 163.673 8.2479C162.982 8.2479 161.467 8.56046 160.36 8.80734C157.539 9.49311 154.572 11.1664 151.917 12.3185C150.838 12.7848 150.008 12.3185 149.178 11.7699C144.587 8.67019 140.023 5.54306 135.431 2.4708C133.872 1.44893 132.162 0.802478 130.18 0.650971C130.063 0.642059 129.988 0.769443 130.052 0.866675C130.772 1.96478 131.47 3.03896 132.167 4.08922C134.684 7.81983 137.201 11.523 139.718 15.2536C140.133 15.8571 140.438 16.5429 140.852 17.1463C141.24 17.7224 141.101 18.1613 140.576 18.5453C138.999 19.6425 137.505 20.8495 135.818 21.7547C131.752 23.9218 127.631 26.034 123.454 27.9815C121.296 28.9965 119 29.9262 116.705 30.6394C114.796 31.2429 110.617 32.3351 108.806 32.666C106.994 32.9969 113.945 31.5787 113.938 30.1486C113.91 23.8199 113.936 17.4911 113.938 11.1623C113.938 10.7707 114.259 10.4532 114.654 10.4532C116.522 10.4532 118.354 10.4532 120.277 10.4532C120.672 10.4532 120.992 10.7708 120.992 11.1624C120.992 16.7582 120.992 22.2402 120.992 28.0043C123.675 26.7973 126.331 25.3721 128.516 23.5616C129.18 23.013 129.484 22.3547 129.484 21.5043C129.456 17.9383 129.484 15.0342 129.484 11.4681C129.484 10.4532 129.484 10.4532 130.48 10.4532C132.001 10.4532 133.522 10.4532 135.21 10.4532C134.463 9.3011 133.827 8.25872 133.135 7.24378C131.807 5.24132 130.452 3.23886 129.124 1.20898C129.053 1.09042 128.958 0.935447 128.868 0.773323C128.684 0.444167 128.874 0.076269 129.251 0.0343464C129.447 0.0126149 129.638 0.00201761 129.788 0.00201761C132.527 -0.0528442 134.878 1.01696 137.118 2.49823C141.35 5.29618 145.582 8.09414 149.815 10.8921C150.229 11.1664 150.7 11.4133 151.198 11.5779C151.419 11.6602 151.751 11.6053 151.972 11.523C153.908 10.6178 155.817 9.60284 157.809 8.80734C159.302 8.23129 160.879 7.84726 162.455 7.54552C163.092 7.43579 164.579 7.32602 165.103 7.91697C165.628 8.50792 165.498 9.24623 164.89 10.5081C164.475 11.3858 163.866 12.1813 163.23 12.922C162.815 13.4157 162.621 13.8546 162.621 14.4855C162.649 26.6374 162.649 38.4782 162.649 50.6301C162.649 50.6522 162.649 50.9292 162.649 51.2218C162.649 51.6135 162.33 51.931 161.935 51.931C159.94 51.9312 157.333 51.9348 155.513 51.9836C154.876 52.011 154.517 51.7916 154.213 51.243C152.415 48.0335 150.589 44.8241 148.791 41.6147C146.163 36.9789 143.536 32.3156 140.88 27.7072C140.493 27.3506 139.912 27.2135 139.552 27.0215Z" fill="#0FC494"/>
<path d="M36.6312 37.939C36.6312 37.6392 36.8558 37.4173 37.1581 37.4173C39.1829 37.4174 41.1726 37.4177 43.1771 37.4178C43.5199 37.4178 43.8145 37.6592 43.8702 37.9946C43.9568 38.5156 44.0337 39.0365 44.155 39.5574C45.0678 43.1234 47.0317 45.8665 50.7936 46.7443C53.6426 47.4026 56.4364 47.046 59.0088 45.5099C61.7472 43.8641 63.2133 38.6248 59.1748 36.156C57.2109 34.949 55.0533 34.2084 52.8958 33.4952C49.7424 32.4528 46.5338 31.4653 43.5741 29.9017C36.3546 26.0888 36.6312 18.271 39.9505 14.1838C41.5825 12.1814 43.7677 10.9744 46.2572 10.3161C50.2127 9.24625 54.1958 9.10909 58.1513 10.2612C63.4622 11.7973 66.3113 15.5005 67.3347 20.7672C67.3901 21.0964 67.4454 21.3981 67.5007 21.7273C67.5225 21.8787 67.54 22.0343 67.5566 22.1959C67.6 22.6182 67.2629 22.9891 66.8349 22.9891C64.9084 22.9891 62.984 22.9891 61.0763 22.9891C60.7538 22.9891 60.4708 22.7752 60.3966 22.464C60.2208 21.7269 60.079 20.9823 59.811 20.2735C58.8705 17.6675 57.0449 16.0217 54.2788 15.5828C51.5957 15.1439 48.9956 15.3359 46.7274 17.0092C44.2656 18.8196 44.1826 22.2485 46.5061 24.2784C48.1934 25.7597 50.2957 26.5003 52.3702 27.2409C55.1916 28.2559 58.013 29.1885 60.8068 30.2583C62.7154 30.999 64.458 32.0413 65.924 33.4677C68.3858 35.8268 69.022 38.7619 68.6624 42.0262C68.0262 47.677 63.9601 51.1333 58.5386 52.3676C55.247 53.1083 51.9277 53.2729 48.6084 52.4225C41.9144 50.6944 36.9078 45.0162 36.6312 37.939Z" fill="#133B77"/>
<path d="M242.956 50.9224C243.126 51.3848 242.781 51.8739 242.284 51.8738C240.285 51.8733 238.444 51.8699 236.478 51.8464C236.155 51.8425 235.917 51.6646 235.809 51.3801C234.454 47.7866 233.126 44.1932 231.826 40.5997L231.688 40.2227C231.584 39.9393 231.311 39.752 231.007 39.7554C226.799 39.8022 223.16 39.7768 218.905 39.7768C218.702 39.7768 217.657 39.7768 217.002 39.7768C216.702 39.7768 216.434 39.9634 216.331 40.2436C215.06 43.7044 213.79 47.1182 212.519 50.5572C212.021 51.9013 212.021 51.9013 210.61 51.9013C209.018 51.9013 207.425 51.9013 205.752 51.9013C205.26 51.9013 204.912 51.4188 205.064 50.9549C205.151 50.6886 205.236 50.4309 205.327 50.1731C209.421 39.091 213.515 28.0364 217.581 16.9543C218.3 15.0067 219.019 13.0865 219.711 11.1389C219.877 10.7 220.289 10.508 220.759 10.5355C223.055 10.5629 225.037 10.5629 227.333 10.5355C227.941 10.5355 228.175 10.8372 228.341 11.3035C230.415 16.9269 232.49 22.5776 234.565 28.201C237.357 35.7761 240.174 43.3441 242.956 50.9224ZM229.254 33.9066C227.523 29.0581 225.793 24.3177 224.089 19.5513C224.068 19.4909 224.021 19.4505 223.956 19.4505C223.905 19.4505 223.848 19.4825 223.831 19.5306C222.098 24.3043 220.392 29.0783 218.632 33.9066C222.2 33.9066 225.658 33.9066 229.254 33.9066Z" fill="#133B77"/>
<path d="M171.231 11.2721C171.231 10.8804 171.551 10.5629 171.946 10.5629C173.837 10.5629 175.688 10.5629 177.597 10.5629C177.992 10.5629 178.312 10.8804 178.312 11.2721C178.312 11.3957 178.312 11.516 178.312 11.6327C178.312 20.6301 178.284 29.6274 178.367 38.6247C178.395 42.7119 181.078 45.9488 185.089 46.7991C189.155 47.6769 194.327 45.9762 195.959 41.2855C196.374 40.0511 196.513 38.6522 196.513 37.3081C196.568 28.777 196.54 20.246 196.54 11.715C196.54 11.5561 196.54 11.4019 196.54 11.2446C196.54 10.853 196.86 10.5355 197.255 10.5356C199.127 10.5364 200.997 10.5399 202.851 10.5406C203.246 10.5408 203.566 10.8583 203.566 11.25C203.566 11.3857 203.566 11.499 203.566 11.5417C203.566 20.7311 203.621 29.3805 203.511 38.5699C203.428 44.8515 199.002 50.2554 192.917 51.9836C188.491 53.2454 184.121 53.2728 179.888 51.4075C174.882 49.2131 171.922 45.2904 171.452 39.9414C171.065 35.4702 171.258 30.9715 171.231 26.5003C171.203 21.453 171.231 16.4331 171.231 11.3858C171.231 11.348 171.231 11.3102 171.231 11.2721Z" fill="#133B77"/>
<path d="M25.3097 11.272C25.3097 10.8804 25.6298 10.5629 26.0247 10.5629C27.8899 10.5629 29.755 10.5629 31.6202 10.5629C32.0151 10.5629 32.3352 10.8802 32.3354 11.2718C32.3407 20.252 32.4419 29.7262 32.2802 38.6796C32.1695 44.1932 29.4035 48.3078 24.4798 50.8589C19.6392 53.3551 14.5773 53.6843 9.46 51.7641C4.03848 49.7342 1.02345 45.7842 0.193626 40.1608C0.0553216 39.2556 0.0276608 38.323 0.0276608 37.4178C0 28.6947 0 19.9991 0 11.3035C0 11.2839 0 11.2643 0 11.2446C0 10.853 0.32013 10.5355 0.715037 10.5355C0.762071 10.5355 0.80936 10.5355 0.857485 10.5355C2.48947 10.5355 4.12146 10.5355 5.75345 10.5355L6.33847 10.5355C6.73338 10.5355 7.05351 10.8526 7.05351 11.2442C7.05351 19.6588 7.05351 29.1769 7.05351 37.5275C7.05351 39.3653 7.30246 41.1484 8.24292 42.7942C9.70895 45.3727 11.9771 46.8266 14.9368 47.0186C18.6157 47.2655 21.7414 46.1682 23.899 43.0411C25.0054 41.4501 25.3097 39.6671 25.3097 37.7744C25.3097 29.0239 25.3097 20.2734 25.3097 11.523C25.3097 11.4378 25.3097 11.3545 25.3097 11.272Z" fill="#133B77"/>
<path d="M83.5734 34.6473C81.3329 34.3455 79.5073 33.3855 77.7923 32.0962C77.4327 31.8219 77.4051 31.5476 77.5434 31.1361C80.0052 24.4704 82.4947 17.7773 84.9288 11.0841C85.0948 10.6452 85.2884 10.4807 85.7863 10.4807C88.0545 10.5081 90.3227 10.5081 92.5632 10.4807C93.0888 10.4807 93.3377 10.6452 93.5313 11.1664C96.1056 18.2196 98.6178 27.2797 101.775 33.5407C102.07 34.0448 103.235 33.6019 104.063 33.7146C99.9869 34.628 95.9102 35.1685 92.3419 34.949C93.207 34.8754 93.8244 34.9298 94.369 34.5307C94.5282 34.414 94.5681 34.2014 94.5015 34.0165C92.7408 29.1257 91.0057 24.2612 89.2439 19.4231C89.1886 19.4231 89.1333 19.4231 89.0779 19.3957C87.2523 24.4978 85.3991 29.5726 83.5734 34.6473Z" fill="#133B77"/>
<path d="M108.262 50.9957C108.386 51.4403 108.045 51.8738 107.58 51.8725C105.655 51.867 104.116 51.8464 102.125 51.8464C101.25 51.8464 101.027 51.5172 100.944 51.2704C100.198 49.3502 99.4507 47.4026 98.7868 45.455C98.2059 43.8366 96.9612 43.0411 95.3845 42.7394C93.9462 42.4376 92.4525 42.3827 90.9865 42.1907C87.9714 41.8067 85.0117 41.1484 82.135 40.106C81.9967 40.0511 81.8247 39.9938 81.634 39.8992C81.5234 40.1461 81.3882 40.4626 81.3052 40.7095C80.0328 44.1658 78.7327 47.6221 77.5156 51.1058C77.2943 51.7367 76.9901 51.9287 76.3262 51.9013C74.5401 51.8492 72.748 51.8459 70.9598 51.8462C70.4629 51.8463 70.1175 51.3562 70.2882 50.8934C72.4338 45.0747 74.5335 39.3274 76.6582 33.6049C80.2817 36.3754 84.3755 37.8841 88.8289 38.323C91.595 38.5973 94.3887 38.4327 97.1825 38.3778C99.0081 38.323 100.834 38.131 102.659 37.9664C103.213 37.9115 103.489 38.1035 103.683 38.6521C105.166 42.7171 107.093 46.8133 108.262 50.9957Z" fill="#133B77"/>
<path d="M136.51 28.1735C136.51 28.5576 136.51 28.777 136.51 28.9965C136.51 36.1114 136.51 44.0234 136.535 51.1897C136.536 51.5825 136.216 51.9017 135.82 51.9015C134.045 51.9008 131.34 51.901 130.064 51.9012C129.669 51.9012 129.351 51.5886 129.351 51.197C129.351 48.1832 129.352 36.2934 129.373 31.1635C129.373 30.987 129.485 30.8293 129.652 30.7685C131.91 29.947 134.172 29.0694 136.51 28.1735Z" fill="#0FC494"/>
<path d="M123.067 33.4951C123.161 33.542 123.095 33.6659 123.005 33.7204C122.469 34.0442 121.919 34.3544 121.462 34.7569C121.186 35.0038 120.964 35.4701 120.964 35.8267C120.938 40.6132 120.937 46.3703 120.937 51.247C120.937 51.638 120.618 51.9545 120.223 51.9554L119.913 51.9561C118.149 51.9561 116.407 51.9561 114.571 51.9561C114.176 51.9561 113.856 51.6382 113.856 51.2466C113.856 46.4072 113.856 42.0374 113.856 37.1792C113.856 36.9183 113.709 36.676 113.452 36.6215C112.599 36.4407 111.132 36.54 110.856 36.5662C115.313 35.8267 119.15 34.7569 123.067 33.4951Z" fill="#0FC494"/>
</svg>
