<svg width="332" height="332" viewBox="0 0 332 332" fill="none" xmlns="http://www.w3.org/2000/svg">
<path d="M332 253.914H0V254.08H332V253.914Z" fill="#EBEBEB"/>
<path d="M89.7329 264.597H67.7412V264.763H89.7329V264.597Z" fill="#EBEBEB"/>
<path d="M142.554 259.571H113.637V259.737H142.554V259.571Z" fill="#EBEBEB"/>
<path d="M67.0773 258.435H34.8335V258.601H67.0773V258.435Z" fill="#EBEBEB"/>
<path d="M187.182 260.68H164.413V260.846H187.182V260.68Z" fill="#EBEBEB"/>
<path d="M298.734 260.68H293.793V260.846H298.734V260.68Z" fill="#EBEBEB"/>
<path d="M225.342 260.68H193.091V260.846H225.342V260.68Z" fill="#EBEBEB"/>
<path d="M279.079 263.482H216.876V263.648H279.079V263.482Z" fill="#EBEBEB"/>
<path d="M157.368 224.299H29.1563C28.1519 224.297 27.1892 223.897 26.4796 223.186C25.77 222.476 25.3715 221.512 25.3715 220.508V40.2782C25.3802 39.2796 25.7826 38.3247 26.4913 37.621C27.1999 36.9174 28.1576 36.5217 29.1563 36.52H157.368C158.374 36.52 159.338 36.9194 160.049 37.6305C160.76 38.3415 161.159 39.3059 161.159 40.3114V220.508C161.159 221.513 160.76 222.478 160.049 223.189C159.338 223.9 158.374 224.299 157.368 224.299ZM29.1563 36.6528C28.1959 36.6545 27.2754 37.0373 26.597 37.717C25.9185 38.3967 25.5375 39.3179 25.5375 40.2782V220.508C25.5375 221.468 25.9185 222.389 26.597 223.069C27.2754 223.749 28.1959 224.131 29.1563 224.133H157.368C158.329 224.131 159.25 223.749 159.93 223.069C160.609 222.39 160.992 221.469 160.993 220.508V40.2782C160.992 39.3172 160.609 38.3961 159.93 37.7166C159.25 37.0371 158.329 36.6545 157.368 36.6528H29.1563Z" fill="#EBEBEB"/>
<path d="M300.998 224.299H172.779C171.774 224.297 170.811 223.897 170.1 223.187C169.39 222.476 168.99 221.513 168.988 220.508V40.2782C168.999 39.279 169.402 38.3241 170.112 37.6206C170.822 36.9171 171.78 36.5217 172.779 36.52H300.998C301.995 36.5234 302.951 36.9199 303.659 37.6234C304.366 38.3269 304.767 39.2807 304.776 40.2782V220.508C304.776 221.511 304.378 222.473 303.67 223.184C302.962 223.895 302.001 224.296 300.998 224.299ZM172.779 36.6528C171.818 36.6545 170.897 37.0371 170.218 37.7166C169.538 38.3961 169.156 39.3172 169.154 40.2782V220.508C169.156 221.469 169.538 222.39 170.218 223.069C170.897 223.749 171.818 224.131 172.779 224.133H300.998C301.959 224.131 302.88 223.749 303.56 223.069C304.239 222.39 304.622 221.469 304.623 220.508V40.2782C304.622 39.3172 304.239 38.3961 303.56 37.7166C302.88 37.0371 301.959 36.6545 300.998 36.6528H172.779Z" fill="#EBEBEB"/>
<path d="M180.874 51.792H47.4429V147.581H180.874V51.792Z" fill="#FAFAFA"/>
<path d="M83.2191 147.581L106.101 51.792H131.572L108.69 147.581H83.2191Z" fill="white"/>
<path d="M132.966 147.581L155.848 51.792H165.137L142.255 147.581H132.966Z" fill="white"/>
<path d="M74.4277 147.581L97.3158 51.792H100.802L77.9137 147.581H74.4277Z" fill="white"/>
<path d="M187.248 48.472H41.0751C40.9975 48.472 40.9206 48.4873 40.8489 48.517C40.7772 48.5467 40.7121 48.5902 40.6572 48.6451C40.6023 48.6999 40.5588 48.7651 40.5291 48.8368C40.4994 48.9085 40.4841 48.9853 40.4841 49.0629C40.4841 49.2197 40.5464 49.37 40.6572 49.4808C40.768 49.5916 40.9184 49.6539 41.0751 49.6539H187.248C187.405 49.6539 187.555 49.5916 187.666 49.4808C187.777 49.37 187.839 49.2197 187.839 49.0629C187.839 48.9853 187.824 48.9085 187.794 48.8368C187.764 48.7651 187.721 48.6999 187.666 48.6451C187.611 48.5902 187.546 48.5467 187.474 48.517C187.402 48.4873 187.326 48.472 187.248 48.472Z" fill="#E0E0E0"/>
<path d="M111.904 147.78H117.594L117.594 51.5795H111.904L111.904 147.78Z" fill="#F0F0F0"/>
<path d="M117.588 147.78H118.225L118.225 51.5795H117.588L117.588 147.78Z" fill="#E0E0E0"/>
<path d="M46.5132 98.8961V100.476L181.79 100.476V98.8961L46.5132 98.8961Z" fill="#F0F0F0"/>
<path d="M181.796 146.923V50.869H46.5198V146.923V148.504H181.796V146.923ZM48.1001 146.923V52.456H180.236V146.923H48.1001Z" fill="#F0F0F0"/>
<path d="M181.797 148.504H182.587V50.869H181.797V148.504Z" fill="#E0E0E0"/>
<path opacity="0.5" d="M158.258 47.0444V206.139H191.611L185.495 47.0444H158.258Z" fill="#EBEBEB"/>
<path opacity="0.5" d="M135.111 47.0444V206.139H168.463L162.348 47.0444H135.111Z" fill="#EBEBEB"/>
<path opacity="0.5" d="M58.0137 47.051V206.139H37.4961L41.2543 47.051H58.0137Z" fill="#EBEBEB"/>
<path opacity="0.5" d="M72.2498 47.051V206.139H51.7322L55.4971 47.051H72.2498Z" fill="#EBEBEB"/>
<path d="M83.2656 253.914H107.057L107.057 173.609H83.2656L83.2656 253.914Z" fill="#E6E6E6"/>
<path d="M87.2297 253.914H83.2722V246.689H91.3797L87.2297 253.914Z" fill="#F0F0F0"/>
<path d="M180.083 253.914H203.875V173.609H180.083V253.914Z" fill="#E6E6E6"/>
<path d="M83.2722 251.138H183.543V173.609H83.2722L83.2722 251.138Z" fill="#F0F0F0"/>
<path d="M86.3465 198.304H180.475V177.042H86.3465V198.304Z" fill="#E6E6E6"/>
<path d="M128.962 183.656H137.853C141.718 183.656 145.409 181.033 148.065 176.398H118.75C121.406 181.033 125.098 183.656 128.962 183.656Z" fill="#F0F0F0"/>
<path d="M179.585 253.914H183.543V246.689H175.435L179.585 253.914Z" fill="#F0F0F0"/>
<path d="M86.3465 223.004H180.475V201.743H86.3465V223.004Z" fill="#E6E6E6"/>
<path d="M128.962 208.35H137.853C141.718 208.35 145.409 205.727 148.065 201.099H118.75C121.406 205.727 125.098 208.35 128.962 208.35Z" fill="#F0F0F0"/>
<path d="M86.3465 247.705H180.475V226.444H86.3465V247.705Z" fill="#E6E6E6"/>
<path d="M128.962 233.064H137.853C141.718 233.064 145.409 230.408 148.065 225.806H118.75C121.406 230.408 125.098 233.064 128.962 233.064Z" fill="#F0F0F0"/>
<path d="M146.239 159.008C144.706 143.112 143.637 117.316 144.467 108.684C144.484 108.536 144.531 108.393 144.605 108.264C144.679 108.135 144.779 108.022 144.898 107.933C145.059 107.816 145.249 107.747 145.447 107.733C145.645 107.719 145.843 107.76 146.018 107.853C146.194 107.946 146.34 108.086 146.44 108.257C146.54 108.428 146.59 108.625 146.585 108.823C146.439 113.099 146.273 123.79 147.182 142.222C147.634 151.399 148.291 157.687 147.846 159.008H146.239Z" fill="white"/>
<path d="M141.844 124.832C138.338 120.323 131.087 116.758 123.657 116.2C120.735 115.981 132.455 121.804 137.282 127.614C141.027 132.123 145.217 139.566 146.618 143.61C145.801 135.23 145.35 129.327 141.844 124.832Z" fill="white"/>
<path d="M149.181 123.843C152.813 118.79 161.186 114.905 170.25 114.467C173.809 114.294 160.29 120.636 155.217 127.129C151.292 132.182 147.249 140.542 146.166 145.13C145.901 135.615 145.555 128.896 149.181 123.843Z" fill="white"/>
<path d="M142.096 109.952C139.327 106.187 133.218 103.099 126.738 102.462C124.195 102.216 134.075 107.256 137.906 112.11C140.887 115.881 144.055 122.07 145.004 125.39C144.845 118.544 144.852 113.717 142.096 109.952Z" fill="white"/>
<path d="M147.66 110.722C150.735 106.446 157.826 103.152 165.495 102.754C168.51 102.608 157.049 107.98 152.773 113.484C149.453 117.754 146.04 124.839 145.104 128.756C144.878 120.689 144.586 115.005 147.66 110.722Z" fill="white"/>
<path d="M143.942 141.797C141.95 138.955 137.448 136.572 132.654 136C130.768 135.781 138.032 139.672 140.808 143.338C143.011 146.371 144.723 149.732 145.881 153.298C145.861 148.218 145.941 144.639 143.942 141.797Z" fill="white"/>
<path d="M147.574 140.197C149.314 137.382 153.61 135.004 158.397 134.433C160.283 134.208 153.337 138.079 150.901 141.737C148.96 144.764 147.554 148.102 146.744 151.604C146.273 146.565 145.841 143.019 147.574 140.197Z" fill="white"/>
<path d="M146.89 173.609C143.065 173.609 139.905 172.813 139.686 168.995L139.022 157.952H154.712L154.048 168.995C153.875 172.813 150.728 173.609 146.89 173.609Z" fill="#E6E6E6"/>
<path d="M154.639 160.462H139.135C138.831 160.461 138.539 160.348 138.313 160.144C138.088 159.941 137.945 159.662 137.913 159.36L137.674 157.235C137.655 157.063 137.673 156.888 137.726 156.723C137.779 156.558 137.867 156.406 137.983 156.277C138.099 156.148 138.24 156.045 138.399 155.974C138.557 155.904 138.729 155.867 138.902 155.867H154.878C155.051 155.868 155.222 155.905 155.379 155.976C155.537 156.047 155.678 156.151 155.793 156.28C155.908 156.409 155.995 156.56 156.048 156.725C156.101 156.889 156.118 157.063 156.1 157.235L155.867 159.36C155.835 159.663 155.691 159.943 155.464 160.146C155.238 160.35 154.944 160.462 154.639 160.462Z" fill="#F0F0F0"/>
<path d="M166 283.9C237.103 283.9 294.743 280.535 294.743 276.383C294.743 272.232 237.103 268.867 166 268.867C94.8973 268.867 37.2571 272.232 37.2571 276.383C37.2571 280.535 94.8973 283.9 166 283.9Z" fill="#F5F5F5"/>
<path d="M276.848 68.7904H197.978V276.383H276.848V68.7904Z" fill="#0066FF"/>
<path opacity="0.8" d="M276.848 68.7904H197.978V276.383H276.848V68.7904Z" fill="white"/>
<g opacity="0.4">
<path opacity="0.4" d="M278.727 95.709C275.846 95.9879 274.591 96.4128 273.415 94.7462C272.24 93.0795 267.884 92.721 266.43 94.547C264.976 96.373 264.438 97.5748 261.191 97.0967C257.944 96.6186 256.849 97.4752 256.344 98.8231C255.839 100.171 248.376 100.656 250.514 102.143L278.216 98.0728C278.216 98.0728 281.609 95.4301 278.727 95.709Z" fill="white"/>
<path opacity="0.4" d="M253.821 81.2205C252.931 80.2843 250.308 80.3175 247.937 81.4927C245.567 82.668 247.273 77.2365 242.871 78.7571C236.556 80.9283 238.223 84.3878 235.607 84.4343C232.991 84.4807 225.308 86.5259 229.319 87.7543L252.559 84.3347C252.559 84.3347 254.717 82.1501 253.821 81.2205Z" fill="white"/>
<path opacity="0.4" d="M223.343 117.681C222.712 117.017 220.853 117.017 219.166 117.88C217.48 118.743 218.708 114.859 215.574 115.934C211.092 117.475 212.254 119.918 210.422 119.965C208.589 120.011 203.118 121.446 205.959 122.342L222.44 119.912C222.44 119.912 223.98 118.345 223.343 117.681Z" fill="white"/>
</g>
<path opacity="0.07" d="M267.645 235.056V242.891C267.645 243.207 267.52 243.51 267.297 243.734C267.075 243.958 266.772 244.085 266.456 244.086H264.312C264.155 244.086 264 244.116 263.855 244.175C263.71 244.234 263.578 244.322 263.467 244.432C263.356 244.543 263.268 244.674 263.208 244.819C263.147 244.963 263.117 245.118 263.117 245.275V246.776C263.117 247.093 262.991 247.397 262.766 247.621C262.542 247.845 262.238 247.971 261.921 247.971H253.953C253.637 247.969 253.334 247.843 253.11 247.619C252.886 247.395 252.76 247.092 252.758 246.776V235.056C252.758 234.741 252.633 234.438 252.41 234.216C252.187 233.993 251.885 233.867 251.57 233.867H250.328C250.011 233.866 249.708 233.739 249.485 233.515C249.261 233.292 249.134 232.989 249.133 232.672V219.186C249.133 218.871 249.007 218.569 248.785 218.346C248.562 218.123 248.259 217.998 247.944 217.998H245.613C245.298 217.998 244.995 218.123 244.771 218.346C244.547 218.568 244.42 218.871 244.418 219.186V227.559C244.403 227.813 244.288 228.049 244.099 228.218C243.91 228.387 243.662 228.475 243.409 228.462C243.156 228.475 242.909 228.387 242.721 228.218C242.533 228.049 242.42 227.812 242.406 227.559V202.633C242.406 202.316 242.28 202.012 242.056 201.788C241.832 201.564 241.528 201.438 241.211 201.438H238.861C238.704 201.438 238.549 201.469 238.404 201.529C238.26 201.589 238.128 201.677 238.018 201.788C237.907 201.899 237.82 202.031 237.761 202.176C237.701 202.321 237.671 202.476 237.672 202.633V227.267C237.672 227.584 237.546 227.888 237.322 228.112C237.098 228.337 236.794 228.462 236.477 228.462H236.191C236.034 228.462 235.879 228.432 235.734 228.372C235.589 228.311 235.457 228.223 235.346 228.112C235.235 228.001 235.147 227.87 235.087 227.725C235.027 227.58 234.996 227.424 234.996 227.267V214.532C234.998 214.345 234.955 214.16 234.87 213.994L227.785 199.811C227.701 199.646 227.658 199.464 227.659 199.28V181.385C227.659 181.228 227.628 181.073 227.568 180.929C227.508 180.784 227.42 180.653 227.308 180.542C227.197 180.432 227.066 180.344 226.921 180.285C226.776 180.226 226.62 180.195 226.464 180.196H219.565C219.249 180.196 218.946 180.321 218.722 180.544C218.498 180.767 218.371 181.069 218.37 181.385V227.267C218.37 227.424 218.34 227.579 218.281 227.724C218.222 227.869 218.134 228.001 218.024 228.112C217.913 228.223 217.782 228.311 217.637 228.371C217.493 228.432 217.338 228.462 217.181 228.462H216.696C216.54 228.462 216.385 228.432 216.24 228.371C216.095 228.311 215.964 228.223 215.853 228.112C215.743 228.001 215.656 227.869 215.596 227.724C215.537 227.579 215.507 227.424 215.508 227.267V209.824C215.506 209.508 215.379 209.205 215.156 208.981C214.932 208.757 214.629 208.631 214.313 208.629H207.414C207.097 208.631 206.794 208.757 206.57 208.981C206.347 209.205 206.22 209.508 206.218 209.824V227.274C206.219 227.431 206.189 227.586 206.13 227.731C206.07 227.876 205.983 228.008 205.873 228.119C205.762 228.23 205.631 228.318 205.486 228.378C205.342 228.438 205.186 228.469 205.03 228.469H204.094C203.777 228.469 203.473 228.595 203.248 228.819C203.024 229.043 202.898 229.347 202.898 229.664V232.666C202.898 232.981 202.773 233.284 202.551 233.508C202.328 233.732 202.026 233.859 201.71 233.861H201.378C201.221 233.86 201.066 233.89 200.921 233.949C200.776 234.009 200.644 234.096 200.533 234.207C200.422 234.317 200.334 234.448 200.274 234.593C200.214 234.738 200.183 234.893 200.183 235.049V258.907C200.183 259.064 200.214 259.219 200.274 259.363C200.334 259.508 200.422 259.639 200.533 259.75C200.644 259.86 200.776 259.948 200.921 260.007C201.066 260.066 201.221 260.096 201.378 260.095H271.191C271.506 260.095 271.808 259.97 272.031 259.747C272.254 259.524 272.379 259.222 272.379 258.907V235.056C272.379 234.741 272.254 234.438 272.031 234.216C271.808 233.993 271.506 233.867 271.191 233.867H268.84C268.524 233.867 268.221 233.992 267.997 234.215C267.773 234.438 267.647 234.74 267.645 235.056Z" fill="#0066FF"/>
<path opacity="0.07" d="M276.622 262.287H197.978V269.245H276.622V262.287Z" fill="#0066FF"/>
<path d="M284.404 63.0269V276.383H275.759V72.5486H206.457V276.383H197.819V63.0269H284.404Z" fill="#263238"/>
<path d="M280.56 63.0269V276.383H271.921V72.5486H202.62V276.383H193.974V63.0269H280.56Z" fill="#0066FF"/>
<path d="M215.8 88.6706C212.832 88.9096 208.961 90.9481 217.619 93.3186C226.278 95.6891 227.447 93.126 227.447 93.126C227.447 93.126 223.768 88.0265 215.8 88.6706Z" fill="#0066FF"/>
<path opacity="0.4" d="M215.8 88.6706C212.832 88.9096 208.961 90.9481 217.619 93.3186C226.278 95.6891 227.447 93.126 227.447 93.126C227.447 93.126 223.768 88.0265 215.8 88.6706Z" fill="black"/>
<path d="M231.618 110.412C233.571 110.116 234.863 107.952 234.503 105.577C234.143 103.203 232.268 101.518 230.315 101.814C228.362 102.11 227.07 104.275 227.43 106.649C227.789 109.023 229.664 110.708 231.618 110.412Z" fill="#263238"/>
<path d="M220.168 100.225C222.121 99.9289 223.413 97.7642 223.053 95.3898C222.693 93.0155 220.818 91.3306 218.865 91.6266C216.912 91.9225 215.62 94.0872 215.98 96.4615C216.34 98.8359 218.215 100.521 220.168 100.225Z" fill="#263238"/>
<path d="M271.921 229.485V247.944C262.326 240.368 252.513 231.889 250.474 227.473C243.09 211.431 228.921 169.366 228.921 169.366L251.231 160.243L251.331 160.695C251.915 163.41 255.042 178.271 258.714 201.033C259.697 207.108 260.706 213.755 261.736 220.88C263.502 222.035 267.32 225.322 271.921 229.485Z" fill="#263238"/>
<path opacity="0.2" d="M259.664 207.035C258.502 199.578 257.38 192.852 256.344 186.969L251.244 183.052C253.021 191.371 255.85 199.431 259.664 207.035Z" fill="black"/>
<path d="M271.921 183.716V222.174C270.593 219.957 269.352 217.958 268.263 216.265C265.739 212.334 262.34 206.889 258.714 201.033C248.814 185.063 237.24 166 237.24 166L251.331 160.688L257.924 158.205C263.641 165.721 267.433 173.543 271.921 183.716Z" fill="#263238"/>
<path d="M222.048 131.512C221.583 131.85 221.232 132.096 220.833 132.362C220.435 132.627 220.056 132.866 219.671 133.112C218.888 133.597 218.104 134.062 217.307 134.513C215.717 135.408 214.082 136.219 212.407 136.943C211.577 137.322 210.72 137.654 209.871 137.999C209.021 138.344 208.151 138.663 207.268 138.909C205.504 139.485 203.708 139.959 201.889 140.33L201.63 140.383C201.145 140.489 200.644 140.494 200.157 140.397C199.67 140.3 199.209 140.103 198.802 139.818C197.061 138.572 195.452 137.15 194.001 135.576C192.632 134.111 191.342 132.575 190.136 130.974C188.955 129.394 187.848 127.782 186.816 126.14C185.774 124.48 184.791 122.82 183.882 121.054C183.648 120.584 183.59 120.045 183.72 119.537C183.849 119.028 184.157 118.582 184.588 118.281C185.018 117.981 185.542 117.844 186.065 117.897C186.587 117.95 187.073 118.189 187.434 118.57L187.48 118.617C188.716 119.945 189.99 121.353 191.265 122.687C192.54 124.022 193.822 125.343 195.13 126.625C196.438 127.906 197.786 129.128 199.114 130.257C200.357 131.335 201.69 132.306 203.098 133.159L200.003 132.647C201.491 132.163 202.965 131.651 204.426 131.04C205.887 130.43 207.334 129.785 208.762 129.048C210.189 128.311 211.597 127.588 212.985 126.791C213.649 126.399 214.366 125.994 215.036 125.582L216.032 124.952L216.949 124.367L217.135 124.248C218.095 123.643 219.252 123.433 220.364 123.665C221.475 123.896 222.453 124.549 223.092 125.487C223.732 126.425 223.982 127.574 223.791 128.693C223.6 129.812 222.982 130.813 222.068 131.485L222.048 131.512Z" fill="#FFC3BD"/>
<path d="M223.668 120.735C218.466 122.93 213.415 125.467 208.549 128.331C210.096 132.8 212.248 138.119 215.72 141.226C218.82 139.25 221.758 137.03 224.505 134.586C230.567 129.367 230.003 118.192 223.668 120.735Z" fill="#0066FF"/>
<path d="M227.931 169.26C229.087 173.244 229.923 177.819 231.729 178.702C233.536 179.585 237.652 173.536 239.213 171.259C243.456 171.578 255.859 169.898 259.657 167.454C263.455 165.011 262.26 162.016 259.219 157.813C250.893 156.976 232.852 166.219 227.931 169.26Z" fill="white"/>
<path d="M241.317 115.616C235.297 116.655 229.399 118.308 223.715 120.549C217.586 123.026 214.419 128.013 215.521 134.533C216.849 142.368 222.825 160.615 228.449 173.045C229.425 175.183 258.84 161.823 260.261 158.882C257.944 150.748 251.915 142.999 249.578 123.57C249.1 119.566 245.242 114.938 241.317 115.616Z" fill="#0066FF"/>
<path d="M235.454 130.994C237.367 130.099 239.356 129.377 241.397 128.836C241.549 128.793 241.712 128.81 241.853 128.882C241.993 128.955 242.101 129.079 242.154 129.228C242.38 129.839 242.778 130.868 243.177 131.777C243.214 131.859 243.233 131.947 243.232 132.036C243.232 132.126 243.213 132.214 243.176 132.295C243.139 132.376 243.085 132.448 243.017 132.507C242.95 132.565 242.871 132.609 242.785 132.634C241.231 133.105 238.695 134.035 237.075 134.739C236.935 134.791 236.781 134.795 236.639 134.749C236.497 134.703 236.374 134.611 236.291 134.487C235.753 133.628 235.362 132.685 235.136 131.698C235.102 131.562 235.115 131.418 235.173 131.291C235.231 131.163 235.33 131.058 235.454 130.994Z" fill="white"/>
<path d="M227.506 128.637C227.599 129.188 227.447 129.673 227.154 129.726C226.862 129.779 226.544 129.374 226.444 128.823C226.344 128.272 226.504 127.787 226.796 127.734C227.088 127.681 227.407 128.086 227.506 128.637Z" fill="white"/>
<path d="M250.109 120.934C251.722 121.877 253.203 122.827 254.71 123.829C256.218 124.832 257.679 125.821 259.126 126.917C260.574 128.013 262.014 129.062 263.429 130.19C264.843 131.319 266.224 132.475 267.599 133.663L267.838 133.869C268.207 134.189 268.508 134.58 268.722 135.019C268.935 135.459 269.057 135.937 269.079 136.425C269.147 138.437 268.935 140.448 268.449 142.401C268.007 144.206 267.407 145.968 266.656 147.667C265.936 149.304 265.111 150.892 264.186 152.421C263.269 153.949 262.246 155.412 261.125 156.797C260.793 157.197 260.33 157.465 259.818 157.555C259.307 157.645 258.78 157.551 258.332 157.288C257.884 157.026 257.543 156.613 257.371 156.123C257.199 155.633 257.207 155.097 257.393 154.612L257.446 154.493C258.004 153.072 258.595 151.518 259.093 150.024C259.591 148.53 260.062 147.01 260.421 145.509C260.789 144.059 261.057 142.586 261.224 141.1C261.372 139.775 261.361 138.438 261.191 137.116L262.672 139.878C259.89 137.886 257.041 135.967 254.166 134.068L245.534 128.438H245.487C244.499 127.826 243.793 126.848 243.526 125.716C243.259 124.585 243.452 123.394 244.063 122.405C244.674 121.416 245.653 120.711 246.784 120.444C247.916 120.176 249.107 120.37 250.096 120.981L250.109 120.934Z" fill="#FFC3BD"/>
<path d="M245.421 116.32C250.331 119.1 255.049 122.205 259.544 125.616C257.481 129.754 254.378 133.287 250.541 135.868C250.541 135.868 247.805 135.204 242.964 129.958C237.559 124.082 239.425 113.053 245.421 116.32Z" fill="#0066FF"/>
<path d="M257.944 153.298L254.113 157.68L260.374 160.814C260.374 160.814 263.369 156.405 261.324 154.36L257.944 153.298Z" fill="#FFC3BD"/>
<path d="M254.425 163.835L256.795 164.559C257.251 164.699 257.742 164.666 258.175 164.468C258.609 164.27 258.954 163.919 259.146 163.483L260.374 160.827L254.113 157.693L253.051 161.252C252.896 161.777 252.954 162.341 253.211 162.824C253.468 163.307 253.904 163.67 254.425 163.835Z" fill="#FFC3BD"/>
<path d="M227.088 125.111C227.088 125.111 230.282 127.163 230.587 129.852C238.203 124.241 239.419 118.736 237.759 116.313C237.012 116.029 236.188 116.029 235.441 116.313C235.441 116.313 233.104 121.107 227.088 125.111Z" fill="white"/>
<path d="M227.088 125.111C227.088 125.111 224.877 127.687 224.638 130.363C219.764 128.172 221.53 122.455 222.845 120.934C223.681 120.327 224.612 119.862 225.601 119.56C225.601 119.56 223.841 121.758 227.088 125.111Z" fill="white"/>
<path d="M231.006 103.318C231.384 107.07 232.54 113.411 235.288 116.173C235.62 116.505 235.831 116.939 235.886 117.405C235.942 117.871 235.839 118.343 235.594 118.743C233.936 121.652 231.265 123.848 228.091 124.912C224.512 126.107 223.529 124.407 223.576 122.588C223.593 122.126 223.714 121.674 223.93 121.266C224.146 120.858 224.452 120.504 224.824 120.23C227.931 117.887 226.816 114.872 225.242 112.189L231.006 103.318Z" fill="#FFC3BD"/>
<path opacity="0.2" d="M228.662 106.937L225.249 112.216C225.665 112.889 226.02 113.598 226.311 114.334C227.971 113.571 229.777 110.981 229.412 109.122C229.297 108.354 229.043 107.614 228.662 106.937Z" fill="black"/>
<path d="M231.942 97.0967C232.44 102.847 233.024 106.187 230.614 109.587C226.989 114.706 219.665 113.272 217.473 107.814C215.481 102.9 215.023 94.3146 220.196 91.1207C221.319 90.4074 222.608 89.9989 223.936 89.9354C225.265 89.872 226.587 90.1559 227.773 90.7591C228.959 91.3623 229.967 92.2639 230.698 93.3753C231.429 94.4866 231.858 95.7692 231.942 97.0967Z" fill="#FFC3BD"/>
<path d="M221.975 89.3014C218.741 89.6201 217.201 91.539 218.044 92.4952C215.196 93.0065 217.785 96.4792 220.86 95.0516C221.125 96.1605 227.241 95.7886 227.3 94.122C228.688 97.7275 230.428 97.4951 230.428 97.4951C230.428 97.4951 228.622 101.479 231.211 101.997C231.211 104.248 232.838 106.22 234.531 105.881C236.411 105.496 235.813 102.316 235.813 102.316C239.239 100.795 236.935 97.349 236.935 97.349C236.882 93.5244 228.927 85.0783 221.975 89.3014Z" fill="#263238"/>
<path d="M217.792 104.354C217.402 104.323 217.025 104.196 216.696 103.984C216.367 103.772 216.096 103.482 215.906 103.139C215.333 102.22 215.008 101.167 214.963 100.085C214.869 99.0076 215.059 97.9247 215.515 96.944C215.632 96.5436 215.869 96.1889 216.194 95.9281C216.52 95.6673 216.918 95.513 217.334 95.4861C217.75 95.4593 218.165 95.5612 218.521 95.7781C218.878 95.995 219.158 96.3163 219.326 96.6983C219.9 97.6152 220.228 98.6652 220.275 99.7461C220.428 102.19 219.366 104.255 217.898 104.348L217.792 104.354ZM217.44 95.8418H217.36C217.019 95.9 216.698 96.0464 216.43 96.2665C216.162 96.4866 215.957 96.7727 215.833 97.0967C215.432 98.0293 215.257 99.0432 215.322 100.056C215.386 101.069 215.689 102.053 216.205 102.927C216.368 103.233 216.608 103.492 216.901 103.677C217.195 103.862 217.532 103.967 217.878 103.982C219.147 103.903 220.056 101.99 219.917 99.766C219.872 98.7471 219.566 97.7568 219.027 96.8909C218.871 96.5975 218.644 96.3479 218.367 96.1647C218.09 95.9814 217.771 95.8704 217.44 95.8418Z" fill="white"/>
<path d="M224.133 103.949C223.707 103.93 223.292 103.813 222.918 103.607C222.545 103.401 222.225 103.111 221.982 102.761C221.319 101.876 220.94 100.811 220.893 99.7063C220.734 97.2694 222.002 95.1911 223.715 95.0583C225.428 94.9255 226.949 96.851 227.101 99.2946C227.205 100.393 226.974 101.497 226.437 102.462C226.231 102.863 225.928 103.206 225.556 103.461C225.184 103.716 224.754 103.875 224.306 103.923L224.133 103.949ZM223.861 95.4367H223.768C222.254 95.5363 221.112 97.4287 221.278 99.6863C221.326 100.717 221.677 101.71 222.287 102.542C222.493 102.882 222.788 103.159 223.14 103.343C223.492 103.527 223.888 103.611 224.284 103.585C224.681 103.56 225.063 103.427 225.388 103.199C225.714 102.972 225.971 102.659 226.132 102.296C226.646 101.398 226.877 100.366 226.796 99.3344C226.603 97.1499 225.322 95.4367 223.861 95.4367Z" fill="white"/>
<path d="M220.096 99.9386C220.06 99.9385 220.025 99.9274 219.995 99.9068C219.965 99.8863 219.943 99.8572 219.93 99.8235C219.917 99.7897 219.914 99.7529 219.923 99.7178C219.931 99.6826 219.95 99.6508 219.977 99.6266C220.143 99.4999 220.342 99.4238 220.551 99.4073C220.759 99.3908 220.968 99.4346 221.152 99.5336C221.194 99.5562 221.226 99.5945 221.241 99.6404C221.256 99.6862 221.253 99.736 221.232 99.7793C221.21 99.8213 221.173 99.8533 221.128 99.8682C221.084 99.8831 221.035 99.8798 220.992 99.859C220.871 99.7912 220.734 99.7589 220.595 99.766C220.456 99.773 220.323 99.8191 220.209 99.8988C220.177 99.9246 220.137 99.9387 220.096 99.9386Z" fill="white"/>
<path d="M232.108 100.43H232.068C228.204 99.5602 226.982 99.766 226.975 99.766C226.928 99.7766 226.88 99.7682 226.839 99.7426C226.799 99.7171 226.77 99.6766 226.759 99.6299C226.749 99.5832 226.757 99.5343 226.783 99.4938C226.808 99.4533 226.849 99.4247 226.895 99.4141C226.949 99.4141 228.177 99.1618 232.148 100.078C232.171 100.083 232.192 100.092 232.212 100.105C232.231 100.119 232.247 100.136 232.26 100.156C232.272 100.176 232.28 100.198 232.284 100.221C232.288 100.244 232.286 100.268 232.28 100.291C232.272 100.33 232.25 100.365 232.218 100.39C232.187 100.416 232.148 100.43 232.108 100.43Z" fill="white"/>
<path d="M234.797 102.336C234.3 103.627 233.342 104.689 232.108 105.317C230.541 106.054 229.664 104.534 230.023 102.741C230.348 101.134 231.55 98.8099 233.164 98.8231C234.777 98.8364 235.454 100.682 234.797 102.336Z" fill="#FFC3BD"/>
<path d="M223.642 99.9386C223.675 100.403 223.456 100.808 223.151 100.835C222.845 100.862 222.58 100.51 222.546 100.038C222.513 99.5668 222.726 99.1684 223.031 99.1419C223.337 99.1153 223.602 99.4672 223.642 99.9386Z" fill="#263238"/>
<path d="M218.224 100.35C218.257 100.815 218.038 101.22 217.739 101.247C217.44 101.273 217.161 100.921 217.128 100.45C217.095 99.9785 217.307 99.5801 217.613 99.5535C217.918 99.527 218.19 99.8789 218.224 100.35Z" fill="#263238"/>
<path d="M220.508 100.078C219.713 101.399 218.994 102.765 218.356 104.168C219.186 104.912 220.807 104.368 220.807 104.368L220.508 100.078Z" fill="#E4897B"/>
<path d="M221.351 106.778C221.873 106.729 222.381 106.576 222.843 106.327C223.305 106.079 223.712 105.74 224.04 105.33C224.059 105.3 224.067 105.263 224.06 105.228C224.054 105.192 224.035 105.16 224.007 105.138C223.995 105.125 223.981 105.115 223.965 105.108C223.949 105.101 223.931 105.097 223.914 105.097C223.897 105.097 223.879 105.101 223.863 105.108C223.847 105.115 223.833 105.125 223.821 105.138C223.448 105.581 222.978 105.931 222.447 106.162C221.915 106.392 221.338 106.496 220.76 106.466C220.742 106.465 220.723 106.468 220.706 106.474C220.689 106.48 220.673 106.49 220.659 106.502C220.646 106.514 220.635 106.529 220.627 106.546C220.619 106.562 220.615 106.58 220.614 106.599C220.613 106.617 220.616 106.635 220.622 106.651C220.628 106.668 220.638 106.684 220.65 106.697C220.663 106.71 220.678 106.72 220.694 106.727C220.711 106.734 220.729 106.738 220.747 106.738C220.947 106.765 221.149 106.778 221.351 106.778Z" fill="#263238"/>
<path d="M225.76 98.1923C225.804 98.1795 225.845 98.1568 225.879 98.1259C225.931 98.0737 225.96 98.0034 225.96 97.9301C225.96 97.8567 225.931 97.7864 225.879 97.7342C225.602 97.4026 225.248 97.1448 224.847 96.9837C224.446 96.8227 224.011 96.7634 223.582 96.8112C223.51 96.8218 223.445 96.8606 223.401 96.9191C223.358 96.9776 223.339 97.0511 223.35 97.1233C223.36 97.1955 223.399 97.2605 223.457 97.3041C223.516 97.3477 223.589 97.3663 223.662 97.3557C224.001 97.3253 224.343 97.3777 224.657 97.5084C224.972 97.639 225.25 97.8441 225.468 98.106C225.502 98.1479 225.549 98.1785 225.601 98.1939C225.653 98.2092 225.708 98.2087 225.76 98.1923Z" fill="#263238"/>
<path d="M215.986 98.5044C216.031 98.5078 216.076 98.5006 216.117 98.4833C216.159 98.466 216.196 98.4391 216.225 98.4048C216.431 98.1283 216.7 97.9046 217.009 97.7522C217.318 97.5998 217.66 97.5231 218.004 97.5283C218.077 97.5341 218.149 97.5119 218.206 97.4662C218.263 97.4205 218.3 97.3549 218.31 97.2827C218.317 97.2107 218.297 97.1386 218.252 97.0816C218.208 97.0246 218.143 96.9872 218.071 96.9772C217.635 96.965 217.202 97.0567 216.808 97.2449C216.414 97.4331 216.071 97.7124 215.807 98.0595C215.761 98.1156 215.739 98.187 215.746 98.2588C215.752 98.3306 215.786 98.3972 215.84 98.4447C215.879 98.482 215.931 98.5033 215.986 98.5044Z" fill="#263238"/>
<path d="M186.936 122.787L181.212 123.829L181.73 116.851C181.73 116.851 187.042 116.539 187.759 119.347L186.936 122.787Z" fill="#FFC3BD"/>
<path d="M176.086 120.403L176.677 117.999C176.798 117.54 177.079 117.139 177.47 116.868C177.861 116.598 178.336 116.476 178.809 116.525L181.73 116.851L181.212 123.829L177.607 122.913C177.075 122.778 176.617 122.439 176.332 121.969C176.048 121.5 175.959 120.937 176.086 120.403Z" fill="#FFC3BD"/>
<path d="M220.116 89.2814C221.265 86.0743 223.204 84.0093 224.976 83.7503C226.165 83.5843 231.112 84.4143 233.257 85.5298C235.401 86.6454 238.509 90.6825 238.668 92.1698C238.827 93.6572 236.909 97.369 236.909 97.369C236.909 97.369 228.296 91.7582 220.116 89.2814Z" fill="#0066FF"/>
<path d="M222.912 84.992C225.001 85.4606 227.059 86.0594 229.073 86.7848C229.372 86.9043 229.472 87.1633 229.299 87.3824C228.961 87.814 228.283 88.7104 227.825 89.3744C227.706 89.5101 227.547 89.6058 227.371 89.6485C227.196 89.6913 227.011 89.679 226.842 89.6135C225.335 89.0557 222.746 88.2124 221.013 87.741C220.7 87.6546 220.554 87.4289 220.647 87.2031C221 86.437 221.496 85.7452 222.108 85.1646C222.22 85.0767 222.351 85.0154 222.49 84.9855C222.629 84.9555 222.773 84.9578 222.912 84.992Z" fill="white"/>
<path d="M215.521 88.6971C221.909 88.6971 224.239 92.9003 227.546 94.1287C230.853 95.3571 236.291 94.7395 236.291 94.7395C236.291 94.7395 225.202 87.5019 215.521 88.6971Z" fill="#0066FF"/>
<path d="M151.244 122.41L200.754 116.243L198.178 95.5603L148.668 101.727L151.244 122.41Z" fill="#0066FF"/>
<path opacity="0.4" d="M168.575 120.25L200.75 116.242L198.173 95.5592L165.999 99.5667L168.575 120.25Z" fill="white"/>
<path opacity="0.3" d="M192.201 115.436L191.471 109.587L197.812 108.796L198.536 114.646L192.201 115.436ZM192.201 110.124L192.779 114.719L197.859 114.088L197.288 109.487L192.201 110.124Z" fill="white"/>
<path opacity="0.3" d="M184.665 116.379L183.935 110.529L190.269 109.739L191 115.589L184.665 116.379ZM184.665 111.067L185.236 115.662L190.322 115.031L189.751 110.436L184.665 111.067Z" fill="white"/>
<path d="M179.438 103.9L186.225 103.055L185.488 97.1379L178.701 97.9833L179.438 103.9Z" fill="white"/>
<path d="M156.134 106.812L160.002 106.33L159.265 100.413L155.397 100.895L156.134 106.812Z" fill="white"/>
<path d="M252.984 109.168C249.956 108.776 245.162 106.818 242.931 105.058C242.913 105.043 242.898 105.025 242.886 105.004C242.875 104.984 242.868 104.961 242.865 104.937C242.863 104.914 242.865 104.89 242.872 104.868C242.879 104.845 242.89 104.824 242.904 104.806C242.919 104.787 242.938 104.772 242.958 104.761C242.979 104.75 243.002 104.743 243.025 104.74C243.049 104.738 243.072 104.74 243.095 104.747C243.117 104.753 243.138 104.764 243.157 104.779C245.348 106.506 250.049 108.431 253.03 108.81C253.054 108.813 253.077 108.821 253.097 108.833C253.118 108.845 253.136 108.861 253.15 108.88C253.164 108.9 253.175 108.921 253.18 108.945C253.186 108.968 253.187 108.992 253.183 109.016C253.181 109.039 253.174 109.062 253.162 109.082C253.151 109.103 253.135 109.121 253.116 109.135C253.098 109.149 253.076 109.159 253.054 109.165C253.031 109.171 253.007 109.172 252.984 109.168Z" fill="white"/>
<path d="M208.768 153.51C208.747 153.516 208.724 153.516 208.702 153.51C205.873 152.361 201.743 149.241 200.037 146.97C200.018 146.931 200.013 146.887 200.023 146.845C200.033 146.803 200.058 146.765 200.092 146.739C200.127 146.714 200.169 146.7 200.213 146.702C200.256 146.705 200.297 146.722 200.329 146.751C202.002 148.982 206.059 152.063 208.841 153.178C208.885 153.198 208.918 153.235 208.936 153.279C208.953 153.324 208.952 153.373 208.934 153.417C208.918 153.447 208.894 153.471 208.865 153.488C208.835 153.504 208.802 153.512 208.768 153.51Z" fill="white"/>
<path d="M258.641 114.328C255.787 114.208 252.962 113.706 250.242 112.834C250.196 112.819 250.158 112.788 250.135 112.745C250.113 112.703 250.108 112.654 250.122 112.608C250.136 112.562 250.168 112.524 250.21 112.501C250.253 112.479 250.302 112.474 250.348 112.488C252.061 113.013 256.417 114.208 259.697 113.922C259.721 113.92 259.745 113.922 259.767 113.928C259.79 113.935 259.811 113.946 259.83 113.961C259.849 113.975 259.864 113.994 259.875 114.015C259.887 114.035 259.894 114.058 259.896 114.082C259.9 114.13 259.885 114.178 259.854 114.215C259.823 114.252 259.778 114.276 259.73 114.281C259.378 114.308 259.013 114.328 258.641 114.328Z" fill="white"/>
<path d="M99.8856 85.729C94.3545 92.13 102.176 97.3557 103.704 102.747C105.231 108.139 104.328 119.752 111.187 126.392C121.864 136.751 134.181 130.914 136.279 124.859C138.378 118.803 137.607 109.294 128.531 102.747C123.106 98.843 127.349 85.9282 122.349 84.3811C123.365 76.5924 98.8298 70.9418 99.8856 85.729Z" fill="#263238"/>
<path d="M136.12 124.341C136.091 124.341 136.062 124.333 136.037 124.32C136.011 124.306 135.99 124.285 135.974 124.261C135.951 124.222 135.944 124.175 135.953 124.131C135.963 124.087 135.99 124.048 136.027 124.022C137.8 122.88 138.75 120.848 138.683 118.305C138.603 114.148 135.649 108.252 129.228 104.441C126.326 102.721 126.027 97.5881 125.755 93.0596C125.549 89.4939 125.35 86.1208 123.956 84.9654C123.738 84.7909 123.486 84.664 123.216 84.5931C122.946 84.5222 122.664 84.5088 122.389 84.5537C122.365 84.5575 122.342 84.5565 122.319 84.5507C122.296 84.545 122.275 84.5346 122.256 84.5203C122.237 84.506 122.222 84.4881 122.21 84.4676C122.199 84.447 122.192 84.4244 122.189 84.401C122.186 84.3555 122.199 84.3103 122.228 84.2745C122.256 84.2387 122.297 84.2151 122.342 84.2085C122.666 84.1575 122.996 84.1742 123.313 84.2577C123.629 84.3411 123.925 84.4894 124.181 84.6932C125.682 85.9482 125.888 89.3943 126.1 93.0397C126.366 97.4818 126.665 102.515 129.42 104.142C135.171 107.555 138.949 113.112 139.042 118.298C139.095 120.954 138.086 123.106 136.206 124.314C136.181 124.331 136.151 124.341 136.12 124.341Z" fill="#263238"/>
<path d="M87.3028 130.609L85.1912 131.618L80.0984 130.503C79.5135 130.373 78.9881 130.053 78.6044 129.593L77.4888 128.265C77.2409 127.968 77.1051 127.593 77.1051 127.206C77.1051 126.819 77.2409 126.444 77.4888 126.147L78.6508 124.779C78.9285 124.45 79.3235 124.244 79.7516 124.203C80.1797 124.162 80.6068 124.29 80.9416 124.56L83.757 126.817C83.757 126.817 87.1633 127.893 87.3028 130.609Z" fill="#FF8B7B"/>
<path d="M105.483 272.685L101.479 272.692L100.802 257.625L107.548 257.791L105.483 272.685Z" fill="#FF8B7B"/>
<path d="M98.5111 142.68C98.5111 142.68 98.1592 184.512 97.276 202.693C97.2428 203.234 97.2428 203.778 97.276 204.319C98.604 222.559 100.782 257.625 100.782 257.625L107.575 257.798C107.575 257.798 113.498 229.797 109.826 204.432C115.715 175.748 118.896 150.15 113.557 142.68H98.5111Z" fill="#263238"/>
<path d="M100.131 255.514C100.201 257.033 100.354 258.547 100.589 260.049C100.605 260.103 100.632 260.153 100.67 260.195C100.708 260.236 100.756 260.268 100.809 260.288C103.969 261.523 107.13 261.33 107.389 260.726C107.648 260.122 108.192 256.915 108.411 255.7C108.422 255.647 108.42 255.592 108.405 255.54C108.391 255.487 108.365 255.439 108.329 255.399C108.293 255.358 108.248 255.326 108.198 255.306C108.148 255.286 108.094 255.277 108.04 255.281C106.712 255.354 102.728 255.527 100.543 255.142C100.49 255.133 100.436 255.136 100.385 255.15C100.333 255.165 100.286 255.192 100.246 255.227C100.207 255.263 100.176 255.308 100.156 255.357C100.136 255.407 100.127 255.46 100.131 255.514Z" fill="#0066FF"/>
<path opacity="0.2" d="M109.892 159.287C107.834 166.272 109.839 188.709 110.915 199.067C112.382 191.584 113.63 184.386 114.553 177.753L109.892 159.287Z" fill="black"/>
<path d="M101.028 270.739H106.24C106.35 270.734 106.457 270.771 106.54 270.843C106.623 270.914 106.675 271.015 106.685 271.125L107.209 275.394C107.214 275.526 107.192 275.658 107.144 275.782C107.096 275.905 107.024 276.018 106.931 276.113C106.839 276.208 106.728 276.283 106.606 276.334C106.484 276.385 106.353 276.411 106.22 276.41C103.929 276.37 102.827 276.244 99.932 276.244C98.1525 276.244 97.0702 276.43 94.62 276.43C92.1699 276.43 92.1566 274.073 93.1924 273.86C97.8404 272.891 98.4314 272.36 100.045 271.098C100.323 270.872 100.669 270.745 101.028 270.739Z" fill="#263238"/>
<path d="M100.483 108.557C99.7297 108.4 98.9444 108.547 98.2988 108.966C97.6532 109.385 97.1996 110.043 97.037 110.795C96.4793 113.398 95.875 116.061 95.2509 118.677C94.6267 121.293 93.9229 123.896 93.1526 126.406C92.7609 127.654 92.3359 128.882 91.8645 130.024C91.6456 130.556 91.3973 131.075 91.1208 131.578C91.0809 131.638 91.0477 131.704 91.0079 131.771C90.5519 131.577 90.1084 131.355 89.6799 131.107C88.6507 130.443 87.5485 129.673 86.506 128.909L86.4329 128.856C86.1629 128.657 85.8327 128.558 85.4978 128.574C85.1629 128.59 84.8438 128.72 84.5938 128.944C84.3439 129.167 84.1784 129.47 84.1252 129.801C84.072 130.132 84.1342 130.471 84.3015 130.762C85.033 132.073 85.9252 133.289 86.9575 134.38C87.5247 134.99 88.157 135.536 88.8433 136.007C89.2788 136.296 89.7468 136.532 90.2377 136.711C90.971 136.986 91.7662 137.053 92.5351 136.904C93.0444 136.799 93.5276 136.594 93.9561 136.299C94.1569 136.156 94.3456 135.996 94.5205 135.821C94.5773 135.765 94.6305 135.705 94.6798 135.642L94.806 135.496C95.1063 135.141 95.3814 134.766 95.6293 134.374C96.0581 133.699 96.4439 132.998 96.7847 132.275C97.4487 130.908 97.96 129.56 98.4447 128.212C99.4075 125.516 100.158 122.813 100.875 120.111C101.24 118.783 101.539 117.402 101.858 116.041C102.176 114.679 102.462 113.332 102.714 111.924C102.851 111.183 102.694 110.418 102.278 109.79C101.862 109.162 101.219 108.72 100.483 108.557Z" fill="#FF8B7B"/>
<path d="M96.4327 137.003C96.4327 138.716 123.033 139.048 123.033 136.791L109.441 133.325L96.4327 137.003Z" fill="#263238"/>
<path d="M101.32 107.435C108.334 106.264 115.499 106.336 122.488 107.648C122.898 107.712 123.29 107.86 123.64 108.082C123.991 108.304 124.292 108.595 124.525 108.938C124.758 109.281 124.919 109.668 124.997 110.075C125.075 110.483 125.068 110.902 124.978 111.306C121.22 128.152 121.432 133.809 121.798 142.68H98.5177C97.3491 127.886 96.7382 119.44 96.5788 114.646C96.4593 110.994 97.701 107.973 101.32 107.435Z" fill="#FF8B7B"/>
<path opacity="0.2" d="M122.422 112.329C122.273 114.679 122.584 117.036 123.338 119.268C123.63 117.667 124.002 115.948 124.374 114.069L122.422 112.329Z" fill="black"/>
<path d="M114.872 95.1379C114.208 98.511 113.544 104.686 115.908 106.937C115.908 106.937 114.985 110.357 108.723 110.357C101.838 110.357 105.403 106.937 105.403 106.937C109.162 106.041 109.069 103.252 108.411 100.629L114.872 95.1379Z" fill="#FF8B7B"/>
<path opacity="0.2" d="M112.216 97.3822L108.411 100.629C108.572 101.238 108.678 101.861 108.73 102.488C110.171 102.283 112.143 100.702 112.296 99.2016C112.377 98.5952 112.35 97.9792 112.216 97.3822Z" fill="black"/>
<path d="M102.615 90.8086C104.248 96.2003 104.826 98.5243 108.259 100.676C113.424 103.916 119.693 100.722 119.706 94.952C119.706 89.7529 117.05 81.7982 111.154 80.8951C109.859 80.6891 108.533 80.8176 107.302 81.2683C106.071 81.7191 104.975 82.4772 104.119 83.4706C103.264 84.4639 102.676 85.6596 102.413 86.944C102.15 88.2283 102.219 89.5587 102.615 90.8086Z" fill="#FF8B7B"/>
<path d="M103.206 94.5602C105.828 94.7528 106.944 90.5364 105.669 88.2124C104.394 85.8884 99.6997 90.5895 103.206 94.5602Z" fill="#263238"/>
<path d="M101.771 85.1846C110.058 89.6334 115.051 81.3068 119.394 85.729C117.262 79.5738 105.536 76.9443 101.771 85.1846Z" fill="#263238"/>
<path d="M116.446 94.288C114.204 93.8691 111.933 93.6249 109.653 93.5576C110.191 94.8125 111.247 95.8816 113.816 96.0077C116.386 96.1339 116.446 94.288 116.446 94.288Z" fill="white"/>
<path d="M144.852 262.758L140.834 263.987L134.971 251.702L141.153 250.009L144.852 262.758Z" fill="#FF8B7B"/>
<path d="M139.965 263.608L144.36 260.952C144.443 260.9 144.541 260.879 144.637 260.894C144.734 260.909 144.822 260.958 144.885 261.032L147.84 264.471C147.911 264.557 147.964 264.657 147.993 264.765C148.022 264.873 148.028 264.986 148.01 265.096C147.992 265.207 147.95 265.312 147.887 265.404C147.824 265.497 147.743 265.575 147.647 265.633C145.98 266.603 145.655 266.749 143.59 268.083C142.342 268.9 140.589 271.111 138.862 272.247C137.136 273.382 135.954 271.822 136.465 271.091C137.957 269.089 138.979 266.776 139.453 264.325C139.485 264.177 139.546 264.037 139.634 263.913C139.722 263.79 139.835 263.686 139.965 263.608Z" fill="#263238"/>
<path d="M104.912 142.68C104.912 142.68 113.471 186.445 116.698 203.768C120.051 221.789 134.985 251.696 134.985 251.696L141.18 249.996C141.18 249.996 132.694 218.031 128.736 202.188C127.966 173.503 128.882 150.137 121.811 142.667L104.912 142.68Z" fill="#263238"/>
<path d="M132.8 248.402C133.443 249.768 134.159 251.098 134.945 252.386C134.981 252.43 135.027 252.465 135.079 252.489C135.13 252.513 135.187 252.526 135.244 252.526C138.63 252.466 141.485 251.092 141.492 250.434C141.492 249.883 140.788 246.596 140.529 245.394C140.519 245.341 140.496 245.291 140.463 245.248C140.429 245.205 140.387 245.17 140.338 245.146C140.289 245.122 140.235 245.11 140.181 245.111C140.126 245.111 140.073 245.124 140.024 245.149C138.823 245.72 135.23 247.386 133.039 247.865C132.981 247.874 132.927 247.898 132.881 247.933C132.835 247.969 132.798 248.016 132.774 248.069C132.751 248.122 132.741 248.181 132.745 248.239C132.75 248.297 132.768 248.353 132.8 248.402Z" fill="#0066FF"/>
<path d="M111.692 90.1845C111.798 90.636 112.123 90.9348 112.415 90.8485C112.707 90.7622 112.854 90.3638 112.747 89.9189C112.641 89.474 112.322 89.1686 112.03 89.2549C111.738 89.3412 111.585 89.7396 111.692 90.1845Z" fill="#263238"/>
<path d="M116.731 88.976C116.837 89.4209 117.163 89.7263 117.455 89.64C117.747 89.5537 117.893 89.1553 117.787 88.7038C117.681 88.2522 117.362 87.9534 117.07 88.0398C116.778 88.1261 116.625 88.5444 116.731 88.976Z" fill="#263238"/>
<path d="M116.944 88.1128L117.94 87.5484C117.94 87.5484 117.594 88.5178 116.944 88.1128Z" fill="#263238"/>
<path d="M115.37 90.1646C116.006 91.0872 116.768 91.9164 117.634 92.628C117.443 92.8415 117.209 93.0113 116.946 93.1258C116.684 93.2404 116.4 93.2971 116.114 93.292L115.37 90.1646Z" fill="#FF5652"/>
<path d="M102.13 95.5762C102.74 96.4809 103.683 97.1085 104.753 97.3225C106.174 97.5881 106.745 96.2933 106.26 95.0117C105.808 93.8697 104.534 92.3558 103.159 92.6546C102.86 92.7267 102.583 92.8726 102.355 93.0789C102.126 93.2852 101.953 93.5454 101.851 93.8357C101.748 94.1261 101.72 94.4374 101.769 94.7414C101.818 95.0454 101.942 95.3323 102.13 95.5762Z" fill="#FF8B7B"/>
<path d="M101.18 85.1846C103.783 81.2603 107.369 83.8566 108.006 84.7463C108.644 85.6361 101.566 92.535 104.593 99.2082C101.008 97.3822 98.1127 91.0809 101.18 85.1846Z" fill="#263238"/>
<path d="M109.613 89.7595C109.669 89.7495 109.72 89.7213 109.759 89.6793C109.797 89.6373 109.821 89.5838 109.826 89.5271C109.938 88.2854 111.326 87.4754 111.34 87.4687C111.4 87.4327 111.445 87.3744 111.463 87.3063C111.482 87.2381 111.473 87.1654 111.439 87.1035C111.422 87.0728 111.399 87.0458 111.371 87.0241C111.343 87.0024 111.311 86.9865 111.277 86.9772C111.243 86.968 111.208 86.9656 111.173 86.9701C111.138 86.9747 111.104 86.9862 111.074 87.0039C111.001 87.0438 109.427 87.9601 109.288 89.474C109.284 89.5094 109.288 89.5452 109.298 89.5793C109.309 89.6133 109.326 89.6449 109.349 89.6721C109.372 89.6994 109.4 89.7218 109.432 89.7379C109.463 89.7541 109.498 89.7637 109.533 89.7662C109.56 89.7705 109.588 89.7682 109.613 89.7595Z" fill="#263238"/>
<path d="M118.126 86.2669C118.185 86.2771 118.246 86.2669 118.299 86.2379C118.351 86.2089 118.393 86.1628 118.416 86.1073C118.439 86.0517 118.443 85.99 118.426 85.9321C118.41 85.8742 118.374 85.8237 118.325 85.7888C117.994 85.5174 117.603 85.3298 117.185 85.2419C116.766 85.1541 116.333 85.1686 115.921 85.2842C115.887 85.2945 115.855 85.3119 115.827 85.3353C115.8 85.3587 115.777 85.3876 115.762 85.4201C115.746 85.4526 115.737 85.488 115.736 85.5241C115.735 85.5601 115.742 85.596 115.755 85.6294C115.766 85.6627 115.784 85.6933 115.807 85.7197C115.83 85.746 115.858 85.7675 115.89 85.783C115.921 85.7984 115.956 85.8075 115.991 85.8096C116.026 85.8117 116.061 85.8069 116.094 85.7954C116.421 85.709 116.764 85.7018 117.094 85.7746C117.424 85.8474 117.732 85.9979 117.993 86.2138C118.033 86.2409 118.078 86.259 118.126 86.2669Z" fill="#263238"/>
<path d="M134.726 127.388C134.726 127.216 134.692 127.03 134.659 126.837L134.606 126.545L134.56 126.346C134.493 126.107 134.434 125.848 134.36 125.629C133.828 123.968 133.141 122.361 132.309 120.828C131.552 119.354 130.722 117.953 129.865 116.578C128.159 113.816 126.366 111.2 124.394 108.61C123.91 108.068 123.241 107.726 122.517 107.652C121.794 107.578 121.069 107.778 120.486 108.212C119.903 108.646 119.503 109.283 119.366 109.997C119.229 110.711 119.365 111.451 119.746 112.07V112.103C121.519 114.573 123.325 117.13 125.018 119.666C125.855 120.948 126.665 122.236 127.428 123.517C128.156 124.722 128.79 125.981 129.327 127.282C129.394 127.428 129.427 127.561 129.473 127.694L129.507 127.78C129.507 127.78 129.507 127.78 129.507 127.82C129.536 128.003 129.536 128.189 129.507 128.371C129.428 128.986 129.288 129.591 129.088 130.177C128.618 131.562 128.059 132.915 127.415 134.228C126.751 135.595 126.087 136.963 125.317 138.311C124.547 139.659 123.81 141.034 123.053 142.368C122.877 142.678 122.823 143.042 122.899 143.389C122.975 143.737 123.176 144.044 123.464 144.253C123.752 144.462 124.108 144.557 124.462 144.52C124.816 144.484 125.144 144.318 125.383 144.055C127.549 141.645 129.522 139.07 131.286 136.352C132.21 134.932 133.018 133.44 133.703 131.89C134.09 131.016 134.386 130.103 134.586 129.168C134.703 128.582 134.75 127.985 134.726 127.388Z" fill="#FF8B7B"/>
<path d="M111.904 89.308L112.907 88.7436C112.907 88.7436 112.555 89.713 111.904 89.308Z" fill="#263238"/>
<path d="M97.2296 112.986C97.6629 111.237 98.2154 109.52 98.8829 107.847C99.9509 107.542 101.041 107.32 102.143 107.183C104.375 109.164 106.216 111.547 107.568 114.208C110.549 111.2 116.24 108.159 119.713 107.043C120.896 106.965 122.084 107.114 123.212 107.482C120.848 114.945 118.438 122.462 122.714 124.387C122.641 127.933 122.847 132.355 123.019 136.777C118.976 136.339 102.933 135.569 96.4195 136.99C96.0875 132.481 95.9613 128.643 95.9879 125.37C92.9601 121.512 95.9746 116.246 97.2296 112.986Z" fill="#0066FF"/>
<path d="M116.007 110.968C115.264 110.636 114.467 110.257 113.657 109.826L113.298 110.025C114.188 110.503 115.058 110.921 115.861 111.286C116.446 111.552 117.037 111.811 117.634 112.07C118.876 112.614 120.124 113.172 121.346 113.776C121.379 113.664 121.406 113.551 121.439 113.431C120.23 112.84 118.995 112.289 117.774 111.751L116.007 110.968Z" fill="white"/>
<path d="M110.669 122.462C108.71 121.134 106.685 119.726 104.646 118.444C102.153 116.776 99.4218 115.493 96.5456 114.64L96.4061 114.965C99.268 115.806 101.984 117.08 104.46 118.743C106.492 120.018 108.517 121.399 110.47 122.727C114.387 125.383 118.438 128.185 122.787 130.237C122.787 130.104 122.787 129.978 122.787 129.852C118.497 127.84 114.527 125.111 110.669 122.462Z" fill="white"/>
<path d="M122.714 125.987V125.609L122.11 125.35C113.478 121.625 104.514 117.774 97.701 111.28C97.6612 111.406 97.628 111.532 97.5881 111.658C104.434 118.119 113.345 121.957 121.97 125.669L122.714 125.987Z" fill="white"/>
<path d="M112.694 113.199C115.224 114.845 117.813 116.519 120.483 118.066C120.483 117.94 120.516 117.82 120.529 117.694C117.913 116.173 115.37 114.527 112.887 112.907L110.835 111.579L110.529 111.798L112.694 113.199Z" fill="white"/>
<path d="M102.196 130.808C99.9284 129.715 97.8378 128.287 95.9945 126.572C95.9945 126.731 95.9945 126.897 95.9945 127.056C97.8072 128.689 99.8414 130.057 102.037 131.12C103.816 132.01 105.682 132.78 107.488 133.53C109.48 134.354 111.545 135.217 113.498 136.24H114.281C112.124 135.103 109.907 134.084 107.641 133.185C105.828 132.481 103.963 131.711 102.196 130.808Z" fill="white"/>
<path d="M102.694 136.313C100.241 135.197 98.0135 133.642 96.1207 131.724C96.1207 131.904 96.1207 132.083 96.1207 132.262C97.8391 133.93 99.8142 135.311 101.971 136.352L102.694 136.313Z" fill="white"/>
<path d="M121.1 130.888C118.132 129.36 114.972 128.092 111.917 126.87C107.004 124.878 101.924 122.886 97.6013 119.713C96.7922 119.135 96.0326 118.491 95.3305 117.787C95.2906 117.913 95.2441 118.039 95.2109 118.165C95.8891 118.832 96.6197 119.442 97.3955 119.991C101.758 123.172 106.858 125.217 111.791 127.189C114.839 128.411 117.993 129.673 120.941 131.173C121.602 131.509 122.243 131.883 122.86 132.295V131.87C122.291 131.513 121.703 131.185 121.1 130.888Z" fill="white"/>
<path d="M105.609 128.816C102.535 126.724 99.3544 124.56 96.0742 122.687C95.6312 122.436 95.172 122.214 94.6997 122.023C94.6997 122.149 94.6997 122.282 94.7395 122.408C95.1379 122.588 95.5297 122.8 95.9015 123.013C99.1684 124.878 102.342 127.043 105.41 129.128C109.171 131.789 113.084 134.228 117.13 136.432L117.96 136.472C113.681 134.19 109.556 131.633 105.609 128.816Z" fill="white"/>
<path d="M126.871 141.698L124.726 140.768L119.673 142.096C119.094 142.248 118.58 142.587 118.212 143.059L117.15 144.447C116.912 144.754 116.79 145.136 116.806 145.525C116.822 145.913 116.974 146.284 117.236 146.571L118.444 147.899C118.733 148.217 119.135 148.411 119.563 148.438C119.992 148.465 120.415 148.324 120.742 148.045L123.484 145.688C123.484 145.688 126.771 144.088 126.871 141.698Z" fill="#FF8B7B"/>
<path d="M123.504 140.881C123.59 142.05 124.294 144.028 125.337 144.865C125.921 144.679 126.412 143.763 126.412 143.763C125.329 142.695 124.643 141.289 124.467 139.779C124.048 140.047 123.714 140.429 123.504 140.881Z" fill="#0066FF"/>
<path d="M87.1566 129.825C87.7476 127.488 85.4435 126.406 84.4209 123.537C84.0425 122.475 83.3187 123.013 83.2722 124.168C83.326 125.56 83.6272 126.932 84.162 128.218L87.1566 129.825Z" fill="#FF8B7B"/>
<path d="M85.5299 128.152L81.6787 128.962C81.4641 128.995 81.2444 128.961 81.0503 128.863C80.8563 128.766 80.6976 128.61 80.5964 128.418L75.9816 119.228C75.9337 119.149 75.9057 119.06 75.9001 118.968C75.8945 118.877 75.9114 118.785 75.9494 118.701C75.9873 118.617 76.0452 118.544 76.1179 118.488C76.1907 118.431 76.2761 118.394 76.3667 118.378L80.2179 117.574C80.4319 117.54 80.6515 117.573 80.8456 117.669C81.0398 117.766 81.1988 117.921 81.3002 118.112L85.915 127.302C85.9646 127.38 85.994 127.47 86.0005 127.562C86.0069 127.654 85.9903 127.747 85.9521 127.831C85.9139 127.915 85.8553 127.989 85.7816 128.045C85.7079 128.101 85.6214 128.138 85.5299 128.152Z" fill="#0FC494"/>
<path d="M80.8088 115.748C80.7857 115.748 80.7631 115.742 80.7424 115.732C80.7216 115.722 80.7031 115.708 80.6882 115.691C80.6732 115.673 80.662 115.653 80.6553 115.631C80.6486 115.609 80.6466 115.585 80.6494 115.563L80.749 114.235C80.7507 114.212 80.7568 114.19 80.7671 114.169C80.7774 114.149 80.7915 114.131 80.8088 114.116C80.8261 114.101 80.8461 114.09 80.8678 114.083C80.8894 114.076 80.9122 114.073 80.9349 114.075C80.9801 114.08 81.0217 114.102 81.0513 114.137C81.0809 114.171 81.0962 114.216 81.0943 114.261L80.9947 115.589C80.993 115.612 80.9869 115.634 80.9766 115.654C80.9663 115.675 80.9521 115.693 80.9349 115.707C80.9176 115.722 80.8975 115.734 80.8759 115.741C80.8543 115.748 80.8314 115.75 80.8088 115.748Z" fill="#0FC494"/>
<path d="M82.1502 116.26C82.105 116.258 82.0624 116.239 82.0306 116.207C81.9994 116.173 81.9819 116.129 81.9819 116.084C81.9819 116.038 81.9994 115.994 82.0306 115.961L84.3679 113.624C84.4012 113.592 84.4451 113.575 84.4908 113.575C84.5364 113.575 84.5803 113.592 84.6136 113.624C84.6307 113.639 84.6444 113.658 84.6538 113.679C84.6631 113.701 84.6679 113.723 84.6679 113.747C84.6679 113.77 84.6631 113.793 84.6538 113.814C84.6444 113.835 84.6307 113.854 84.6136 113.869L82.2763 116.2C82.2604 116.218 82.241 116.232 82.2193 116.243C82.1976 116.253 82.1741 116.259 82.1502 116.26Z" fill="#0FC494"/>
<path d="M82.6747 117.601C82.6344 117.601 82.5955 117.587 82.5642 117.561C82.5329 117.536 82.511 117.501 82.502 117.462C82.4943 117.417 82.5046 117.371 82.5307 117.333C82.5568 117.296 82.5966 117.27 82.6415 117.262L85.0518 116.758C85.0967 116.748 85.1436 116.757 85.1822 116.782C85.2208 116.806 85.2479 116.846 85.2576 116.891C85.2673 116.935 85.2588 116.982 85.2338 117.021C85.2089 117.06 85.1697 117.087 85.1248 117.096L82.7079 117.601H82.6747Z" fill="#0FC494"/>
<path d="M85.1049 128.769L81.2603 129.58C81.0455 129.613 80.8257 129.579 80.6308 129.483C80.4359 129.387 80.2755 129.233 80.1714 129.042L75.5632 119.852C75.5136 119.774 75.4843 119.685 75.4778 119.592C75.4713 119.5 75.488 119.407 75.5262 119.323C75.5644 119.239 75.623 119.165 75.6967 119.109C75.7704 119.053 75.8569 119.016 75.9484 119.002L79.7929 118.192C80.0077 118.159 80.2276 118.192 80.4225 118.289C80.6174 118.385 80.7778 118.539 80.8819 118.73L85.4967 127.92C85.5446 127.999 85.5724 128.088 85.5777 128.18C85.5829 128.273 85.5654 128.365 85.5268 128.449C85.4881 128.533 85.4294 128.606 85.3558 128.662C85.2823 128.718 85.1961 128.755 85.1049 128.769Z" fill="#263238"/>
<path d="M77.5088 126.12L78.2657 125.217C78.365 125.097 78.4915 125.001 78.6348 124.94C78.7781 124.878 78.9341 124.851 79.0898 124.861C79.2456 124.872 79.3966 124.919 79.5304 124.999C79.6643 125.08 79.777 125.191 79.8593 125.323L81.1873 127.395C81.4575 127.815 81.6039 128.302 81.6098 128.801C81.6156 129.3 81.4807 129.791 81.2205 130.217L81.1077 130.403L77.5088 126.12Z" fill="#FF8B7B"/>
<path d="M41.3273 65.2513L40.7496 64.8794C43.1307 61.1787 46.3378 58.0808 50.1187 55.8291L50.4639 56.44C46.7816 58.6358 43.6551 61.6509 41.3273 65.2513Z" fill="#0FC494"/>
<path d="M37.3765 75.4371L36.7125 75.3175C37.0574 73.2812 37.6298 71.29 38.419 69.3814L39.083 69.6403C38.3032 71.5041 37.731 73.4481 37.3765 75.4371Z" fill="#0FC494"/>
<path d="M90.2044 80.0718C90.2124 74.8277 88.6203 69.7061 85.6408 65.3907C82.6613 61.0753 78.4362 57.7716 73.5296 55.9208C68.623 54.07 63.2686 53.7602 58.1813 55.0327C53.094 56.3052 48.5159 59.0995 45.0586 63.0424C41.6012 66.9853 39.4291 71.8892 38.8322 77.0991C38.2353 82.3091 39.2421 87.5772 41.7181 92.1999C44.1942 96.8225 48.0216 100.58 52.6893 102.97C57.357 105.36 62.6428 106.269 67.8408 105.576L76.931 112.415L78.923 101.34C82.3959 98.9842 85.2397 95.8145 87.2061 92.1074C89.1725 88.4002 90.2019 84.2682 90.2044 80.0718Z" fill="#0FC494"/>
<path d="M57.2036 88.385C57.1102 88.3855 57.0193 88.3552 56.9449 88.2987C56.8705 88.2423 56.8167 88.163 56.7919 88.073L52.2236 72.542C52.2068 72.4804 52.2034 72.4159 52.2137 72.3529C52.224 72.2899 52.2478 72.2298 52.2834 72.1768C52.3191 72.1238 52.3663 72.0796 52.4215 72.0474C52.4767 72.0153 52.5384 71.9959 52.6021 71.9909L75.696 69.886C75.7578 69.8795 75.8202 69.8869 75.8788 69.9076C75.9374 69.9282 75.9906 69.9617 76.0347 70.0055C76.0801 70.0489 76.1155 70.1017 76.1385 70.1602C76.1614 70.2187 76.1713 70.2815 76.1675 70.3442L75.1117 86.3864C75.1044 86.4892 75.0612 86.5862 74.9895 86.6602C74.9179 86.7343 74.8224 86.7808 74.7199 86.7914L57.2435 88.3784L57.2036 88.385ZM53.2196 72.801L57.5356 87.4886L74.3016 85.9614L75.2976 70.789L53.2196 72.801Z" fill="white"/>
<path d="M52.6419 72.8474C52.5748 72.848 52.5086 72.8326 52.4486 72.8026C52.3886 72.7726 52.3365 72.7288 52.2967 72.6748L50.464 70.1848L46.8917 70.5102C46.7775 70.5195 46.6642 70.4836 46.5761 70.4104C46.488 70.3372 46.432 70.2324 46.4203 70.1184C46.411 70.0042 46.4468 69.8909 46.52 69.8028C46.5932 69.7147 46.6981 69.6587 46.812 69.647L50.63 69.3017C50.7035 69.2963 50.7771 69.3093 50.8444 69.3394C50.9116 69.3696 50.9703 69.4159 51.0151 69.4743L53.0071 72.1635C53.0406 72.2087 53.0648 72.2602 53.0783 72.3148C53.0917 72.3694 53.0942 72.4262 53.0855 72.4818C53.0769 72.5373 53.0573 72.5907 53.0279 72.6386C52.9985 72.6866 52.9598 72.7282 52.9142 72.7611C52.8372 72.8226 52.7402 72.8533 52.6419 72.8474Z" fill="white"/>
<path d="M60.165 94.7528C59.7441 94.7523 59.3325 94.6295 58.9802 94.3994C58.6278 94.1693 58.3499 93.8417 58.1803 93.4566C58.0107 93.0714 57.9567 92.6453 58.0249 92.23C58.093 91.8147 58.2804 91.4282 58.5641 91.1174C58.8479 90.8066 59.2159 90.585 59.6233 90.4796C60.0307 90.3741 60.46 90.3893 60.8589 90.5233C61.2579 90.6573 61.6092 90.9044 61.8703 91.2344C62.1315 91.5645 62.291 91.9633 62.3296 92.3823C62.356 92.6684 62.3252 92.9568 62.239 93.2308C62.1528 93.5048 62.0129 93.7589 61.8275 93.9783C61.6421 94.1977 61.4148 94.378 61.1591 94.5087C60.9033 94.6393 60.624 94.7178 60.3376 94.7395L60.165 94.7528ZM60.165 91.2668H60.0455C59.782 91.2867 59.5305 91.3847 59.3231 91.5483C59.1156 91.7118 58.9617 91.9336 58.8809 92.1851C58.8002 92.4367 58.7963 92.7066 58.8697 92.9603C58.9432 93.2141 59.0907 93.4402 59.2933 93.6097C59.496 93.7792 59.7446 93.8844 60.0073 93.9119C60.2701 93.9393 60.535 93.8878 60.7683 93.7639C61.0017 93.6399 61.1927 93.4492 61.3171 93.2161C61.4414 92.983 61.4934 92.7182 61.4664 92.4554C61.4325 92.1335 61.2822 91.8351 61.0438 91.6162C60.8054 91.3974 60.4952 91.2731 60.1716 91.2668H60.165Z" fill="white"/>
<path d="M71.9775 93.6771C71.4701 93.6768 70.9789 93.4982 70.5898 93.1725C70.1494 92.8019 69.8731 92.2725 69.8209 91.6993C69.7687 91.1262 69.9448 90.5555 70.3109 90.1115C70.5858 89.7812 70.9526 89.5399 71.3648 89.4182C71.7769 89.2966 72.2159 89.2999 72.6262 89.4279C73.0364 89.5559 73.3995 89.8027 73.6693 90.1372C73.9392 90.4716 74.1038 90.8786 74.1422 91.3067C74.1676 91.5925 74.1362 91.8806 74.0496 92.1542C73.963 92.4278 73.8231 92.6816 73.6379 92.9008C73.4526 93.12 73.2258 93.3003 72.9704 93.4313C72.715 93.5622 72.4363 93.6413 72.1502 93.6639L71.9775 93.6771ZM71.9775 90.1911H71.858C71.6047 90.2228 71.3659 90.3268 71.1701 90.4907C70.9744 90.6546 70.83 90.8714 70.7544 91.1153C70.6787 91.3591 70.6749 91.6196 70.7435 91.8655C70.812 92.1114 70.95 92.3323 71.1409 92.5019C71.2722 92.613 71.4245 92.6967 71.5887 92.748C71.7529 92.7993 71.9258 92.8172 72.097 92.8007C72.4412 92.7653 72.758 92.597 72.98 92.3316C73.202 92.0662 73.3116 91.7247 73.2856 91.3797C73.2514 91.0556 73.0992 90.7554 72.858 90.5362C72.6168 90.317 72.3034 90.1942 71.9775 90.1911Z" fill="white"/>
<path d="M63.6908 83.7703C63.448 83.7662 63.2138 83.6795 63.0268 83.5246L59.2619 80.3905C59.0865 80.203 58.9849 79.9582 58.976 79.7016C58.9671 79.445 59.0514 79.1938 59.2134 78.9945C59.3754 78.7952 59.6041 78.6614 59.8572 78.6178C60.1102 78.5741 60.3705 78.6236 60.5899 78.7571L63.5381 81.2072L69.6071 73.9032C69.7933 73.7214 70.0399 73.6143 70.2999 73.6022C70.56 73.5901 70.8154 73.674 71.0177 73.8378C71.22 74.0016 71.3552 74.234 71.3975 74.4909C71.4397 74.7477 71.3863 75.0112 71.2471 75.2312L64.5075 83.3918C64.4077 83.5112 64.2827 83.607 64.1415 83.6724C64.0003 83.7379 63.8464 83.7713 63.6908 83.7703Z" fill="white"/>
</svg>
